PathFileType	4	(X/Y/Z)	Squat.trc	
DataRate	CameraRate	NumFrames	NumMarkers	Units	OrigDataRate	OrigDataStartFrame	OrigNumFrames	
100.00	100.00	51	6	mm	100.00	772	1542	
Frame#	Time	RAsis			SACR			LThighInferior			LThighLateral			LAsis			LThighSuperior			
		X1	Y1	Z1	X2	Y2	Z2	X3	Y3	Z3	X4	Y4	Z4	X5	Y5	Z5	X6	Y6	Z6	

1	0.000	536.30560	1371.57239	964.27985	404.02420	1206.36768	999.74127	210.13844	1329.28442	609.97186	239.06331	1411.87073	696.87665	287.18805	1387.90039	951.43652	197.77415	1318.54968	757.22510 
2	0.010	536.06915	1369.98059	964.21216	404.20978	1204.98438	999.78992	210.11076	1329.31409	609.75586	239.40256	1411.23120	697.09546	287.28296	1386.60889	951.06812	197.96461	1317.65356	757.00934 
3	0.020	537.01343	1369.04517	963.92511	404.27325	1203.92847	999.71588	210.08456	1329.37683	609.52100	239.67244	1410.66406	697.36462	287.34332	1385.19641	950.69769	198.08105	1316.79578	756.74323 
4	0.030	537.24060	1367.70056	963.64240	404.62061	1202.22534	999.93439	210.06085	1329.47717	609.25909	239.86992	1410.13843	697.66809	287.41119	1383.61877	950.18933	198.12413	1316.00964	756.47650 
5	0.040	537.69806	1366.96118	961.56195	404.86594	1201.02502	999.74927	210.04990	1329.60962	608.96057	240.03535	1409.60754	697.96625	287.46069	1382.01978	949.52216	198.17796	1315.14783	756.15674 
6	0.050	537.21619	1365.01770	962.58954	405.07523	1199.89209	999.49078	209.96049	1329.81763	608.67114	240.16971	1409.05212	698.23248	287.52487	1380.38586	948.80054	198.35002	1314.04980	755.71991 
7	0.060	536.85608	1363.41748	961.88617	405.28543	1198.54309	999.27649	209.87851	1329.96484	608.40149	240.23502	1408.44800	698.49744	287.59912	1378.80737	948.19397	198.49455	1312.91504	755.23969 
8	0.070	536.46698	1362.18604	959.67163	405.38318	1197.47986	998.92438	209.85701	1329.97876	608.09814	240.22134	1407.78455	698.72900	287.69257	1377.24182	947.56647	198.56001	1311.84216	754.77411 
9	0.080	535.55334	1359.95984	960.17841	405.58585	1195.46509	998.88855	209.80180	1329.96484	607.76202	240.14081	1407.12769	698.91864	287.81955	1375.57446	946.77777	198.67154	1310.70520	754.35236 
10	0.090	534.72351	1358.24768	959.09784	405.73129	1194.01294	998.74109	209.75571	1329.88293	607.37964	239.96765	1406.49341	699.10126	287.95490	1373.84009	945.90820	198.68027	1309.66431	753.91833 
11	0.100	536.38202	1357.42090	957.09778	405.88275	1192.64563	998.55011	209.72240	1329.72205	606.93768	239.71495	1405.83643	699.24982	288.10135	1372.17542	945.03632	198.63878	1308.60620	753.39178 
12	0.110	536.92401	1356.02893	955.67731	405.98102	1191.36731	998.16138	209.68320	1329.63818	606.57672	239.43477	1405.13867	699.36694	288.34692	1370.49988	944.17834	198.87862	1307.11682	752.70544 
13	0.120	536.78882	1354.17859	955.12292	406.07181	1189.97900	997.68451	209.74820	1329.68555	606.38098	239.19121	1404.38000	699.45404	288.57709	1368.76978	943.21674	199.11314	1305.62354	752.01569 
14	0.130	536.87836	1352.40942	954.53278	406.16168	1187.82483	997.24359	209.43588	1329.29382	605.60980	239.00862	1403.57800	699.49103	288.71814	1367.06372	942.13239	198.88994	1304.62329	751.45728 
15	0.140	537.21912	1350.77014	953.46521	406.14105	1186.67188	996.86914	209.20795	1329.06372	605.01385	238.83339	1402.77075	699.51923	288.94202	1365.25256	941.04004	198.65825	1303.60986	750.83936 
16	0.150	537.25476	1348.95923	952.44214	406.24313	1184.99829	996.60590	209.04286	1328.91296	604.47906	238.67299	1401.97534	699.57086	289.13620	1363.45374	939.92249	198.93597	1302.17603	750.14880 
17	0.160	537.16034	1347.06653	951.53204	406.42007	1183.54163	995.99731	208.88000	1328.81360	603.95386	238.57808	1401.16589	699.61194	289.21704	1361.70959	938.71167	198.84888	1301.11255	749.51154 
18	0.170	537.28125	1345.26892	950.44543	406.50998	1182.00940	995.56824	208.69023	1328.77551	603.45624	238.53018	1400.33557	699.62292	289.30569	1359.98340	937.49139	198.57085	1300.14502	748.78790 
19	0.180	537.38855	1343.44690	949.20703	406.51926	1180.40027	995.25769	208.47491	1328.75940	602.94788	238.49638	1399.51355	699.63647	289.39804	1358.27087	936.26227	199.00835	1298.47888	747.93121 
20	0.190	537.42914	1341.55151	947.93640	406.56366	1178.82996	994.81360	208.21028	1328.79675	602.42529	238.47682	1398.68701	699.64966	289.62756	1356.36121	934.82819	199.36232	1296.97400	747.13696 
21	0.200	537.41687	1339.64087	946.65631	406.68634	1177.43762	994.02777	207.89986	1328.88208	601.87927	238.46745	1397.88391	699.63525	289.80185	1354.44751	933.42413	198.85954	1296.22925	746.58447 
22	0.210	537.40527	1337.75244	945.31866	406.87805	1175.75366	993.15472	207.59804	1328.94312	601.29462	238.45435	1397.09814	699.61743	289.65515	1352.64941	932.34808	198.33774	1295.42725	745.93005 
23	0.220	537.44336	1335.87292	943.89575	407.06552	1173.94421	992.45483	207.32483	1328.98120	600.70905	238.46342	1396.23352	699.58698	289.64709	1350.64697	931.30884	198.74030	1293.90576	744.80591 
24	0.230	537.46350	1333.98572	942.44922	407.16077	1172.03308	991.89197	207.14142	1329.08875	600.15265	238.51970	1395.32043	699.52124	290.01520	1348.60413	929.69086	199.22417	1292.37585	743.71667 
25	0.240	537.54297	1332.14221	940.93695	407.27103	1169.51062	991.44781	207.06239	1329.22754	599.56921	238.55582	1394.46106	699.42682	290.62775	1346.83081	927.11481	199.33240	1291.15125	742.88849 
26	0.250	537.63043	1330.30615	939.37518	407.24936	1169.15088	990.08807	206.82753	1329.24023	598.92462	238.53094	1393.62512	699.30792	290.61905	1345.03589	925.61670	199.38120	1289.83130	741.92395 
27	0.260	537.62244	1328.43616	937.82050	407.73502	1166.77307	989.15027	206.39539	1329.15430	598.26251	238.50143	1392.70630	699.15778	290.92804	1342.86340	923.86676	199.34818	1288.40552	740.80902 
28	0.270	537.61884	1326.56042	936.15240	407.50027	1165.86536	988.24591	206.06210	1329.03687	597.56891	238.49425	1391.70972	698.95972	291.13446	1340.77405	922.13379	199.30890	1287.09802	739.80402 
29	0.280	537.69263	1324.74109	934.36511	407.53027	1163.16858	987.74438	205.81543	1328.89062	596.83771	238.44254	1390.74072	698.72223	291.02420	1338.97412	920.46075	199.27626	1285.89722	738.81561 
30	0.290	537.70673	1322.90955	932.54358	407.68710	1161.92395	986.28802	205.55930	1328.72449	596.12903	238.31212	1389.75977	698.42493	291.01682	1337.04443	918.67633	198.79301	1284.88171	737.93036 
31	0.300	537.64459	1320.99512	930.68219	407.89734	1160.51294	985.42896	205.52626	1328.43567	595.42676	238.15048	1388.66272	698.02826	291.08640	1334.97437	916.74847	198.31857	1283.72412	737.05640 
32	0.310	537.63501	1319.09167	928.70319	407.83490	1158.38464	984.34717	205.82890	1327.94946	594.64258	237.91978	1387.54590	697.60199	291.02435	1333.04517	914.89319	198.77962	1281.96777	735.76697 
33	0.320	537.65558	1317.22314	926.57324	407.73175	1157.16992	982.77271	205.98949	1327.41541	593.76337	237.60693	1386.51306	697.26282	290.98914	1331.07324	913.01666	199.31963	1280.25781	734.40540 
34	0.330	537.69965	1315.39893	924.36060	408.08957	1155.26501	981.63342	205.77577	1326.97937	592.84393	237.21901	1385.52771	696.92908	291.13763	1328.89539	910.98889	199.43134	1278.74377	733.17926 
35	0.340	537.86475	1313.61853	922.18506	408.17722	1153.45544	980.34979	205.58536	1326.66248	591.94580	236.80606	1384.54053	696.52728	291.16077	1326.65186	909.25854	199.14839	1277.45984	731.96466 
36	0.350	538.30817	1311.90186	920.05627	408.14493	1151.73083	978.92676	205.52821	1326.44568	591.08679	236.53477	1383.55957	696.16650	290.82751	1324.54236	907.61469	199.10365	1276.32373	730.63861 
37	0.360	538.75171	1310.17590	917.90179	408.19598	1150.07861	977.51782	205.44106	1326.29163	590.21240	236.37511	1382.61267	695.82391	290.63733	1322.66736	905.46558	199.89362	1274.82874	729.10150 
38	0.370	538.64954	1308.12866	916.08258	408.28217	1148.58020	976.05664	205.28886	1326.17786	589.26874	236.23215	1381.62329	695.38086	290.75629	1320.80017	903.00201	200.47327	1273.26855	727.55005 
39	0.380	538.14075	1305.71033	914.86926	408.38647	1146.72205	974.43750	205.12473	1326.09680	588.23450	236.13467	1380.55322	694.84814	290.90726	1318.77100	900.35938	200.62288	1271.82837	726.00037 
40	0.390	538.32367	1304.11670	911.37793	408.49341	1144.37708	972.55615	204.94337	1326.10376	587.19354	236.04376	1379.49170	694.29285	291.01129	1316.72388	897.56458	200.64174	1270.57349	724.46216 
41	0.400	538.32855	1302.19409	909.02478	408.52075	1143.34827	971.10199	204.71980	1326.22778	586.22357	235.96388	1378.44873	693.74091	291.12125	1314.83435	894.86328	200.25714	1269.70679	723.12268 
42	0.410	538.73944	1300.36292	906.71753	408.39737	1141.66382	969.33020	204.59570	1326.31079	585.22412	235.92296	1377.39746	693.17950	291.29791	1312.99927	892.24268	199.92618	1268.75037	721.72491 
43	0.420	539.01813	1298.51929	904.01434	408.46130	1139.95837	967.70502	204.58406	1326.26062	584.10010	235.69568	1376.46814	692.57343	291.46494	1311.01111	889.49561	200.15939	1267.29333	719.95636 
44	0.430	538.64209	1296.42737	901.27057	408.37125	1138.76270	965.47394	204.54910	1326.17029	582.91754	235.32224	1375.66504	691.92328	291.58096	1308.94543	886.61005	200.42514	1265.83765	718.15826 
45	0.440	538.04413	1294.32117	898.49243	407.75018	1135.79077	963.96716	204.50264	1326.10815	581.75537	235.13057	1374.78247	691.24017	291.61194	1307.04407	883.74634	200.43681	1264.64038	716.46503 
46	0.450	537.57965	1292.32288	895.69958	407.73026	1134.01453	961.98944	204.42899	1326.14563	580.61169	235.05612	1373.86658	690.54034	291.56573	1305.32227	880.91125	200.44986	1263.48755	714.71393 
47	0.460	537.31610	1290.40576	892.87689	407.86108	1132.66943	959.58350	204.30603	1326.30237	579.43494	234.93492	1373.03931	689.79590	291.59879	1303.52405	877.92957	200.54637	1262.28735	712.88470 
48	0.470	537.20642	1288.59094	890.00085	407.80743	1131.15576	957.18347	204.18153	1326.54321	578.17480	234.76567	1372.21521	688.96033	291.63889	1301.64685	874.78156	200.64836	1261.10706	710.98413 
49	0.480	537.20300	1286.85962	887.08630	407.71942	1129.76257	954.93909	204.09366	1326.85388	576.87585	234.55894	1371.36157	688.04578	291.56799	1299.86646	871.63544	200.66106	1260.06128	709.04132 
50	0.490	537.25824	1285.20886	884.10944	407.64056	1128.33826	952.54498	204.16446	1327.06958	575.49896	234.34254	1370.56409	687.06317	291.55161	1298.18433	868.57605	200.65407	1259.06445	707.03381 
51	0.500	537.23694	1283.53906	881.04053	407.65137	1126.93237	949.99493	204.38918	1327.11865	573.97559	234.11903	1369.86292	686.07312	291.63757	1296.52026	865.54895	200.70158	1258.06348	704.97461 
